<svg xmlns="http://www.w3.org/2000/svg" width="57" height="52" viewBox="0 0 57 52">
    <g fill="none" fill-rule="evenodd">
        <g>
            <g transform="translate(-1044 -679) translate(1044 679)">
                <circle cx="34" cy="29" r="23" fill="#00A1DE" opacity=".3"/>
                <path fill="#02203A" fill-rule="nonzero" d="M50.015 23.093l3.676-3.692c.302-.303.392-.759.229-1.154-.164-.396-.548-.654-.975-.654h-7.62c-.996-4.096-3.087-7.827-6.075-10.83C34.907 2.404 29.134 0 22.992 0 16.851 0 11.077 2.402 6.734 6.764 2.392 11.126 0 16.924 0 23.094c0 6.168 2.392 11.967 6.734 16.329 1.292 1.297 2.71 2.419 4.227 3.358l-3.178 5.638c-.184.328-.182.73.007 1.055.189.326.536.526.911.526h5.432c.38 0 .73-.205.918-.538l2.246-3.986c1.84.468 3.749.71 5.695.71 1.947 0 3.856-.242 5.695-.71l2.247 3.986c.187.333.538.538.918.538h5.431c.375 0 .722-.2.911-.526.19-.325.192-.727.007-1.055l-3.177-5.638c1.516-.94 2.935-2.061 4.226-3.358 2.987-3 5.079-6.734 6.075-10.829h7.62c.427 0 .811-.258.975-.654.163-.396.073-.851-.229-1.154l-3.676-3.693zm-1.929-1.06h-7.36l2.312-2.322H50.4l-2.313 2.323zM13.518 47.882H10.51l2.296-4.073c.788.392 1.596.738 2.424 1.035l-1.712 3.038zm21.956 0h-3.007l-1.713-3.038c.828-.297 1.637-.643 2.425-1.035l2.295 4.073zm2.285-9.957c-1.394 1.4-2.95 2.576-4.625 3.513-.02.01-.041.02-.062.032-.013.007-.024.015-.036.023-1.285.71-2.64 1.28-4.044 1.7-.056.012-.11.028-.164.049-1.873.544-3.832.827-5.836.827-2.003 0-3.963-.283-5.836-.827-.054-.02-.108-.037-.164-.048-1.404-.421-2.758-.991-4.043-1.7-.013-.009-.024-.017-.037-.024-.02-.012-.041-.021-.062-.032-1.675-.937-3.23-2.113-4.624-3.513-3.944-3.961-6.117-9.228-6.117-14.83 0-5.603 2.173-10.87 6.117-14.832C12.17 4.3 17.414 2.119 22.992 2.119c5.578 0 10.822 2.181 14.767 6.143 2.591 2.603 4.44 5.81 5.389 9.33h-.546c-.28 0-.548.112-.746.31l-2.8 2.812c-.282-1.926-.902-3.798-1.838-5.501-.281-.512-.923-.698-1.433-.416-.51.283-.695.928-.414 1.44 1.002 1.821 1.561 3.801 1.704 5.797h-4.65c-.235-2.146-1.18-4.134-2.72-5.682-1.794-1.8-4.177-2.793-6.713-2.793-2.535 0-4.919.992-6.712 2.793-1.793 1.8-2.78 4.195-2.78 6.741 0 2.547.987 4.941 2.78 6.742 1.793 1.8 4.177 2.792 6.712 2.792 2.536 0 4.92-.992 6.712-2.792 1.542-1.549 2.486-3.537 2.72-5.682h4.646c-.251 3.311-1.642 6.525-4.084 8.978-2.67 2.68-6.219 4.157-9.994 4.157-3.775 0-7.324-1.476-9.993-4.157-2.67-2.682-4.14-6.246-4.14-10.038 0-3.791 1.47-7.356 4.14-10.037 4.428-4.447 11.344-5.433 16.82-2.396.51.282 1.151.096 1.433-.416.281-.512.096-1.156-.414-1.44-3.02-1.674-6.578-2.342-10.016-1.879-3.553.479-6.774 2.08-9.315 4.633C8.44 14.639 6.75 18.736 6.75 23.093c0 4.358 1.69 8.454 4.757 11.536 3.068 3.08 7.147 4.778 11.485 4.778 4.339 0 8.417-1.697 11.485-4.778 2.493-2.504 4.074-5.665 4.583-9.153l2.796 2.808c.198.198.466.31.746.31h.546c-.95 3.52-2.799 6.728-5.39 9.33zM26.437 21.096c-.291-.507-.936-.68-1.44-.388l-2.532 1.468c-.327.189-.528.539-.528.917 0 .379.201.728.528.918l2.531 1.467c.166.097.347.142.526.142.365 0 .72-.19.915-.53.17-.297.18-.643.058-.937H30.3c-.224 1.578-.945 3.036-2.087 4.184-1.395 1.4-3.249 2.171-5.22 2.171-1.973 0-3.827-.77-5.221-2.171-1.395-1.401-2.163-3.263-2.163-5.244 0-1.98.768-3.843 2.163-5.243 1.394-1.4 3.248-2.172 5.22-2.172 1.972 0 3.826.771 5.22 2.172 1.143 1.147 1.864 2.605 2.088 4.184h-3.805c.123-.295.113-.64-.058-.938zm16.601 5.38l-2.312-2.323h7.36l2.313 2.322h-7.36z" opacity=".8"/>
            </g>
        </g>
    </g>
</svg>
