<svg xmlns="http://www.w3.org/2000/svg" width="58" height="51" viewBox="0 0 58 51">
    <g fill="none" fill-rule="evenodd">
        <g>
            <g transform="translate(-679 -679) translate(679 679)">
                <circle cx="35" cy="28" r="23" fill="#00A1DE" opacity=".3"/>
                <g fill="#02203A" fill-rule="nonzero" opacity=".8">
                    <path d="M15.885 26.596c-.568 0-1.029.46-1.029 1.029v.372c0 .568.46 1.028 1.029 1.028.568 0 1.028-.46 1.028-1.028v-.372c0-.568-.46-1.029-1.028-1.029zM15.885 29.659c-.568 0-1.029.46-1.029 1.028v6.41c0 .569.46 1.03 1.029 1.03.568 0 1.028-.461 1.028-1.03v-6.41c0-.568-.46-1.028-1.028-1.028z"/>
                    <path d="M43.018 7.38C38.258 2.622 31.93 0 25.199 0 18.47 0 12.14 2.621 7.381 7.38 2.62 12.14 0 18.469 0 25.2c0 6.73 2.621 13.058 7.38 17.818 4.76 4.759 11.088 7.38 17.82 7.38 6.73 0 13.058-2.62 17.818-7.38 4.759-4.76 7.38-11.088 7.38-17.819 0-6.73-2.62-13.059-7.38-17.818zM25.199 48.342C12.44 48.341 2.057 37.96 2.057 25.2 2.057 12.44 12.44 2.057 25.2 2.057S48.341 12.44 48.341 25.2 37.96 48.341 25.2 48.341z"/>
                    <path d="M25.212 4.615c-11.342 0-20.57 9.228-20.57 20.571 0 11.343 9.227 20.57 20.57 20.57s20.57-9.227 20.57-20.57-9.227-20.57-20.57-20.57zM32.55 8.19c5.297 2.296 9.317 6.997 10.676 12.718L32.55 27.072V8.19zm-7.338-1.518c1.835 0 3.607.27 5.281.77v12.32l-16.325-9.425c3.085-2.301 6.908-3.665 11.044-3.665zm5.281 15.465v6.123l-5.28 3.049-5.303-3.061v-6.099l5.302-3.06 5.281 3.048zM6.7 25.186c0-5.288 2.228-10.064 5.795-13.44L23.155 17.9 6.823 27.33c-.081-.704-.124-1.419-.124-2.144zm11.154 16.986c-5.28-2.296-9.288-6.983-10.65-12.687l10.65-6.148v18.835zm7.36 1.528c-1.843 0-3.622-.272-5.303-.775V30.623l4.793 2.767.004.002 11.53 6.657c-3.082 2.292-6.897 3.65-11.025 3.65zm12.701-5.058L27.27 32.496l16.335-9.43c.08.696.122 1.403.122 2.12 0 5.296-2.236 10.078-5.812 13.456z"/>
                </g>
            </g>
        </g>
    </g>
</svg>
