<svg xmlns="http://www.w3.org/2000/svg" width="22" height="14" viewBox="0 0 22 14">
    <g fill="none" fill-rule="evenodd">
        <g fill="#FFF" fill-rule="nonzero">
            <g>
                <g>
                    <path d="M.73 1.732h19.485c.359 0 .65-.388.65-.866S20.574 0 20.215 0H.731C.372 0 .08.388.08.866s.291.866.65.866zM20.215 6.062H.731c-.359 0-.65.388-.65.866s.291.866.65.866h19.484c.359 0 .65-.388.65-.866s-.291-.866-.65-.866zM20.215 12.124H.731c-.359 0-.65.388-.65.866s.291.866.65.866h19.484c.359 0 .65-.388.65-.866s-.291-.866-.65-.866z" transform="translate(-358 -53) translate(348 39) translate(10.5 14)"/>
                </g>
            </g>
        </g>
    </g>
</svg>
