<svg xmlns="http://www.w3.org/2000/svg" width="46" height="46" viewBox="0 0 46 46">
    <g fill="none" fill-rule="evenodd">
        <g fill="#02203A" fill-rule="nonzero">
            <g>
                <path d="M45.474 42.932L32.495 29.954c5.913-7.194 5.511-17.874-1.208-24.593-7.148-7.148-18.778-7.148-25.926 0s-7.148 18.778 0 25.926c6.717 6.717 17.395 7.124 24.593 1.208l12.978 12.979c.702.701 1.84.701 2.542 0 .701-.702.701-1.84 0-2.542zM28.745 28.745c-5.746 5.747-15.096 5.747-20.842 0C2.156 23 2.156 13.65 7.903 7.902c5.746-5.746 15.096-5.746 20.842 0 5.747 5.747 5.747 15.097 0 20.843z" transform="translate(-1309 -2552) translate(1309 2552)"/>
                <path d="M27.124 16.527H20.12V9.524c0-.992-.805-1.797-1.797-1.797-.993 0-1.797.805-1.797 1.797v7.003H9.524c-.992 0-1.797.804-1.797 1.797 0 .992.805 1.797 1.797 1.797h7.003v7.003c0 .992.804 1.797 1.797 1.797.992 0 1.797-.805 1.797-1.797V20.12h7.003c.992 0 1.797-.805 1.797-1.797 0-.993-.805-1.797-1.797-1.797z" transform="translate(-1309 -2552) translate(1309 2552)"/>
            </g>
        </g>
    </g>
</svg>
